<svg id="my-svg" width="100%" xmlns="http://www.w3.org/2000/svg" xmlns:xlink="http://www.w3.org/1999/xlink" class="flowchart" style="max-width: 379.906px; background-color: white;" viewBox="28 4 379.90625 1018.2799072265625" role="graphics-document document" aria-roledescription="flowchart-v2"><style>#my-svg{font-family:Helvetica Neue,Helvetica,Arial,sans-serif;font-size:14px;fill:#000000;}@keyframes edge-animation-frame{from{stroke-dashoffset:0;}}@keyframes dash{to{stroke-dashoffset:0;}}#my-svg .edge-animation-slow{stroke-dasharray:9,5!important;stroke-dashoffset:900;animation:dash 50s linear infinite;stroke-linecap:round;}#my-svg .edge-animation-fast{stroke-dasharray:9,5!important;stroke-dashoffset:900;animation:dash 20s linear infinite;stroke-linecap:round;}#my-svg .error-icon{fill:#552222;}#my-svg .error-text{fill:#552222;stroke:#552222;}#my-svg .edge-thickness-normal{stroke-width:1px;}#my-svg .edge-thickness-thick{stroke-width:3.5px;}#my-svg .edge-pattern-solid{stroke-dasharray:0;}#my-svg .edge-thickness-invisible{stroke-width:0;fill:none;}#my-svg .edge-pattern-dashed{stroke-dasharray:3;}#my-svg .edge-pattern-dotted{stroke-dasharray:2;}#my-svg .marker{fill:#666;stroke:#666;}#my-svg .marker.cross{stroke:#666;}#my-svg svg{font-family:Helvetica Neue,Helvetica,Arial,sans-serif;font-size:14px;}#my-svg p{margin:0;}#my-svg .label{font-family:Helvetica Neue,Helvetica,Arial,sans-serif;color:#000000;}#my-svg .cluster-label text{fill:#333;}#my-svg .cluster-label span{color:#333;}#my-svg .cluster-label span p{background-color:transparent;}#my-svg .label text,#my-svg span{fill:#000000;color:#000000;}#my-svg .node rect,#my-svg .node circle,#my-svg .node ellipse,#my-svg .node polygon,#my-svg .node path{fill:#eee;stroke:#999;stroke-width:1px;}#my-svg .rough-node .label text,#my-svg .node .label text,#my-svg .image-shape .label,#my-svg .icon-shape .label{text-anchor:middle;}#my-svg .node .katex path{fill:#000;stroke:#000;stroke-width:1px;}#my-svg .rough-node .label,#my-svg .node .label,#my-svg .image-shape .label,#my-svg .icon-shape .label{text-align:center;}#my-svg .node.clickable{cursor:pointer;}#my-svg .root .anchor path{fill:#666!important;stroke-width:0;stroke:#666;}#my-svg .arrowheadPath{fill:#333333;}#my-svg .edgePaths .path{stroke:#666;stroke-width:1px;}#my-svg .flowchart-link{stroke:#666;fill:none;}#my-svg .edgeLabel{background-color:white;text-align:center;}#my-svg .edgeLabel p{background-color:white;}#my-svg .edgeLabel rect{opacity:0.5;background-color:white;fill:white;}#my-svg .labelBkg{background-color:rgba(255, 255, 255, 0.5);}#my-svg .cluster rect{fill:hsl(0, 0%, 98.9215686275%);stroke:#707070;stroke-width:1px;}#my-svg .cluster text{fill:#333;}#my-svg .cluster span{color:#333;}#my-svg .node .collapsed-indicator{fill:#707070;stroke:none;opacity:0.6;}#my-svg .node .collapsed-separator{stroke:#707070;stroke-width:0.75px;}#my-svg div.mermaidTooltip{position:absolute;text-align:center;max-width:200px;padding:2px;font-family:Helvetica Neue,Helvetica,Arial,sans-serif;font-size:12px;background:hsl(-160, 0%, 93.3333333333%);border:1px solid #707070;border-radius:2px;pointer-events:none;z-index:100;}#my-svg .flowchartTitleText{text-anchor:middle;font-size:18px;fill:#000000;}#my-svg rect.text{fill:none;stroke-width:0;}#my-svg .icon-shape,#my-svg .image-shape{background-color:white;text-align:center;}#my-svg .icon-shape p,#my-svg .image-shape p{background-color:white;padding:2px;}#my-svg .icon-shape .label rect,#my-svg .image-shape .label rect{opacity:0.5;background-color:white;fill:white;}#my-svg .label-icon{display:inline-block;height:1em;overflow:visible;vertical-align:-0.125em;}#my-svg .node .label-icon path{fill:currentColor;stroke:revert;stroke-width:revert;}#my-svg .node .neo-node{stroke:#999;}#my-svg [data-look="neo"].node rect,#my-svg [data-look="neo"].cluster rect,#my-svg [data-look="neo"].node polygon{stroke:url(#my-svg-gradient);filter:drop-shadow( 1px 2px 2px rgba(185,185,185,1));}#my-svg [data-look="neo"].swimlane.cluster rect{filter:none;}#my-svg [data-look="neo"].node path{stroke:url(#my-svg-gradient);stroke-width:1px;}#my-svg [data-look="neo"].node .outer-path{filter:drop-shadow( 1px 2px 2px rgba(185,185,185,1));}#my-svg [data-look="neo"].node .neo-line path{stroke:#999;filter:none;}#my-svg [data-look="neo"].node circle{stroke:url(#my-svg-gradient);filter:drop-shadow( 1px 2px 2px rgba(185,185,185,1));}#my-svg [data-look="neo"].node circle .state-start{fill:#000000;}#my-svg [data-look="neo"].icon-shape .icon{fill:url(#my-svg-gradient);filter:drop-shadow( 1px 2px 2px rgba(185,185,185,1));}#my-svg [data-look="neo"].icon-shape .icon-neo path{stroke:url(#my-svg-gradient);filter:drop-shadow( 1px 2px 2px rgba(185,185,185,1));}#my-svg :root{--mermaid-font-family:"trebuchet ms",verdana,arial,sans-serif;}#my-svg .node rect{fill:rgb(74, 111, 165)!important;stroke:rgb(47, 74, 115)!important;color:rgb(255, 255, 255)!important;}#my-svg .node polygon{fill:rgb(74, 111, 165)!important;stroke:rgb(47, 74, 115)!important;color:rgb(255, 255, 255)!important;}#my-svg .node ellipse{fill:rgb(74, 111, 165)!important;stroke:rgb(47, 74, 115)!important;color:rgb(255, 255, 255)!important;}#my-svg .node circle{fill:rgb(74, 111, 165)!important;stroke:rgb(47, 74, 115)!important;color:rgb(255, 255, 255)!important;}#my-svg .node path{fill:rgb(74, 111, 165)!important;stroke:rgb(47, 74, 115)!important;color:rgb(255, 255, 255)!important;}#my-svg .node tspan{fill:rgb(255, 255, 255)!important;}#my-svg .store rect{fill:rgb(232, 238, 246)!important;stroke:rgb(74, 111, 165)!important;}#my-svg .store polygon{fill:rgb(232, 238, 246)!important;stroke:rgb(74, 111, 165)!important;}#my-svg .store ellipse{fill:rgb(232, 238, 246)!important;stroke:rgb(74, 111, 165)!important;}#my-svg .store circle{fill:rgb(232, 238, 246)!important;stroke:rgb(74, 111, 165)!important;}#my-svg .store path{fill:rgb(232, 238, 246)!important;stroke:rgb(74, 111, 165)!important;}</style><g><marker id="my-svg_flowchart-v2-pointEnd" class="marker flowchart-v2" viewBox="0 0 10 10" refX="5" refY="5" markerUnits="userSpaceOnUse" markerWidth="8" markerHeight="8" orient="auto"><path d="M 0 0 L 10 5 L 0 10 z" class="arrowMarkerPath" style="stroke-width: 1; stroke-dasharray: 1, 0;"/></marker><marker id="my-svg_flowchart-v2-pointStart" class="marker flowchart-v2" viewBox="0 0 10 10" refX="4.5" refY="5" markerUnits="userSpaceOnUse" markerWidth="8" markerHeight="8" orient="auto"><path d="M 0 5 L 10 10 L 10 0 z" class="arrowMarkerPath" style="stroke-width: 1; stroke-dasharray: 1, 0;"/></marker><marker id="my-svg_flowchart-v2-pointEnd-margin" class="marker flowchart-v2" viewBox="0 0 11.5 14" refX="11.5" refY="7" markerUnits="userSpaceOnUse" markerWidth="10.5" markerHeight="14" orient="auto"><path d="M 0 0 L 11.5 7 L 0 14 z" class="arrowMarkerPath" style="stroke-width: 0; stroke-dasharray: 1, 0;"/></marker><marker id="my-svg_flowchart-v2-pointStart-margin" class="marker flowchart-v2" viewBox="0 0 11.5 14" refX="1" refY="7" markerUnits="userSpaceOnUse" markerWidth="11.5" markerHeight="14" orient="auto"><polygon points="0,7 11.5,14 11.5,0" class="arrowMarkerPath" style="stroke-width: 0; stroke-dasharray: 1, 0;"/></marker><marker id="my-svg_flowchart-v2-circleEnd" class="marker flowchart-v2" viewBox="0 0 10 10" refX="11" refY="5" markerUnits="userSpaceOnUse" markerWidth="11" markerHeight="11" orient="auto"><circle cx="5" cy="5" r="5" class="arrowMarkerPath" style="stroke-width: 1; stroke-dasharray: 1, 0;"/></marker><marker id="my-svg_flowchart-v2-circleStart" class="marker flowchart-v2" viewBox="0 0 10 10" refX="-1" refY="5" markerUnits="userSpaceOnUse" markerWidth="11" markerHeight="11" orient="auto"><circle cx="5" cy="5" r="5" class="arrowMarkerPath" style="stroke-width: 1; stroke-dasharray: 1, 0;"/></marker><marker id="my-svg_flowchart-v2-circleEnd-margin" class="marker flowchart-v2" viewBox="0 0 10 10" refY="5" refX="12.25" markerUnits="userSpaceOnUse" markerWidth="14" markerHeight="14" orient="auto"><circle cx="5" cy="5" r="5" class="arrowMarkerPath" style="stroke-width: 0; stroke-dasharray: 1, 0;"/></marker><marker id="my-svg_flowchart-v2-circleStart-margin" class="marker flowchart-v2" viewBox="0 0 10 10" refX="-2" refY="5" markerUnits="userSpaceOnUse" markerWidth="14" markerHeight="14" orient="auto"><circle cx="5" cy="5" r="5" class="arrowMarkerPath" style="stroke-width: 0; stroke-dasharray: 1, 0;"/></marker><marker id="my-svg_flowchart-v2-crossEnd" class="marker cross flowchart-v2" viewBox="0 0 11 11" refX="12" refY="5.2" markerUnits="userSpaceOnUse" markerWidth="11" markerHeight="11" orient="auto"><path d="M 1,1 l 9,9 M 10,1 l -9,9" class="arrowMarkerPath" style="stroke-width: 2; stroke-dasharray: 1, 0;"/></marker><marker id="my-svg_flowchart-v2-crossStart" class="marker cross flowchart-v2" viewBox="0 0 11 11" refX="-1" refY="5.2" markerUnits="userSpaceOnUse" markerWidth="11" markerHeight="11" orient="auto"><path d="M 1,1 l 9,9 M 10,1 l -9,9" class="arrowMarkerPath" style="stroke-width: 2; stroke-dasharray: 1, 0;"/></marker><marker id="my-svg_flowchart-v2-crossEnd-margin" class="marker cross flowchart-v2" viewBox="0 0 15 15" refX="17.7" refY="7.5" markerUnits="userSpaceOnUse" markerWidth="12" markerHeight="12" orient="auto"><path d="M 1,1 L 14,14 M 1,14 L 14,1" class="arrowMarkerPath" style="stroke-width: 2.5;"/></marker><marker id="my-svg_flowchart-v2-crossStart-margin" class="marker cross flowchart-v2" viewBox="0 0 15 15" refX="-3.5" refY="7.5" markerUnits="userSpaceOnUse" markerWidth="12" markerHeight="12" orient="auto"><path d="M 1,1 L 14,14 M 1,14 L 14,1" class="arrowMarkerPath" style="stroke-width: 2.5; stroke-dasharray: 1, 0;"/></marker><g class="root"><g class="clusters"><g class="cluster" id="my-svg-host" data-look="neo"><rect style="" x="67.453125" y="192.8000030517578" width="304.203125" height="821.4799394607544"/><g class="cluster-label" transform="translate(71.453125, 192.8000030517578)"><g><rect class="background" style="stroke: none"/><text y="-10.1" style=""><tspan class="text-outer-tspan row" x="0" y="-0.1em" dy="1.1em"><tspan font-style="normal" class="text-inner-tspan" font-weight="normal">Docker</tspan><tspan font-style="normal" class="text-inner-tspan" font-weight="normal"> host</tspan><tspan font-style="normal" class="text-inner-tspan" font-weight="normal"> ·</tspan><tspan font-style="normal" class="text-inner-tspan" font-weight="normal"> docker</tspan><tspan font-style="normal" class="text-inner-tspan" font-weight="normal"> compose</tspan><tspan font-style="normal" class="text-inner-tspan" font-weight="normal"> (compose.yaml)</tspan></tspan></text></g></g></g><g class="cluster" id="my-svg-apic" data-look="neo"><rect style="" x="98.625" y="651.1062536239624" width="241.859375" height="122.40000057220459"/><g class="cluster-label" transform="translate(141.7421875, 651.1062536239624)"><g><rect class="background" style="stroke: none"/><text y="-10.1" style=""><tspan class="text-outer-tspan row" x="0" y="-0.1em" dy="1.1em"><tspan font-style="normal" class="text-inner-tspan" font-weight="normal">container:</tspan><tspan font-style="normal" class="text-inner-tspan" font-weight="normal"> api</tspan><tspan font-style="normal" class="text-inner-tspan" font-weight="normal"> ·</tspan><tspan font-style="normal" class="text-inner-tspan" font-weight="normal"> oven/bun</tspan></tspan></text></g></g></g><g class="cluster" id="my-svg-web" data-look="neo"><rect style="" x="105.6015625" y="245.8000020980835" width="227.90625" height="229.90625"/><g class="cluster-label" transform="translate(109.6015625, 245.8000020980835)"><g><rect class="background" style="stroke: none"/><text y="-10.1" style=""><tspan class="text-outer-tspan row" x="0" y="-0.1em" dy="1.1em"><tspan font-style="normal" class="text-inner-tspan" font-weight="normal">container:</tspan><tspan font-style="normal" class="text-inner-tspan" font-weight="normal"> web</tspan><tspan font-style="normal" class="text-inner-tspan" font-weight="normal"> ·</tspan><tspan font-style="normal" class="text-inner-tspan" font-weight="normal"> nginx-unprivileged</tspan></tspan></text></g></g></g></g><g class="edges edgePaths"><path d="M219.5546875,67.4000015258789L219.5546875,182.8000030517578L219.5546875,235.8000020980835L219.5546875,284.8000011444092" id="my-svg-L_browser_nginx_0" class="edge-thickness-normal edge-pattern-solid edge-thickness-normal edge-pattern-solid flowchart-link" style="stroke-dasharray: 0 0 213.3999786376953 4; stroke-dashoffset: 0;;" data-edge="true" data-et="edge" data-id="L_browser_nginx_0" data-points="W3sieCI6MjE5LjU1NDY4NzUsInkiOjY3LjQwMDAwMTUyNTg3ODl9LHsieCI6MjE5LjU1NDY4NzUsInkiOjE4Mi44MDAwMDMwNTE3NTc4fSx7IngiOjIxOS41NTQ2ODc1LCJ5IjoyMzUuODAwMDAyMDk4MDgzNX0seyJ4IjoyMTkuNTU0Njg3NSwieSI6Mjg4LjgwMDAwMTE0NDQwOTJ9XQ==" data-look="neo" marker-end="url(#my-svg_flowchart-v2-pointEnd-margin)"/><path d="M219.5546875,359.59999656677246L219.5546875,485.7062520980835L219.5546875,508.635184286218Q219.5546875,515.7062520980835 212.48361968813452,515.7062520980835L136.57106781186548,515.7062520980835Q129.5,515.7062520980835 129.5,522.777319909949L129.5,604.0351858120969Q129.5,611.1062536239624 136.57106781186548,611.1062536239624L212.48361968813452,611.1062536239624Q219.5546875,611.1062536239624 219.5546875,618.1773214358278L219.55468749999997,641.1062536239624L219.55468749999997,690.1062526702881" id="my-svg-L_nginx_nest_0" class="edge-thickness-normal edge-pattern-solid edge-thickness-normal edge-pattern-solid flowchart-link" style="stroke-dasharray: 0 0 495.9590759277344 4; stroke-dashoffset: 0;;" data-edge="true" data-et="edge" data-id="L_nginx_nest_0" data-points="W3sieCI6MjE5LjU1NDY4NzUsInkiOjM1OS41OTk5OTY1NjY3NzI0Nn0seyJ4IjoyMTkuNTU0Njg3NSwieSI6NDg1LjcwNjI1MjA5ODA4MzV9LHsieCI6MjE5LjU1NDY4NzUsInkiOjUxNS43MDYyNTIwOTgwODM1fSx7IngiOjEyOS41LCJ5Ijo1MTUuNzA2MjUyMDk4MDgzNX0seyJ4IjoxMjkuNSwieSI6NjExLjEwNjI1MzYyMzk2MjR9LHsieCI6MjE5LjU1NDY4NzUsInkiOjYxMS4xMDYyNTM2MjM5NjI0fSx7IngiOjIxOS41NTQ2ODc0OTk5OTk5NywieSI6NjQxLjEwNjI1MzYyMzk2MjR9LHsieCI6MjE5LjU1NDY4NzQ5OTk5OTk3LCJ5Ijo2OTQuMTA2MjUyNjcwMjg4MX1d" data-look="neo" marker-end="url(#my-svg_flowchart-v2-pointEnd-margin)"/><path d="M219.5546875,749.506254196167L219.5546875,826.7312536239624L219.5546875,890.7312517166138" id="my-svg-L_nest_vol_0" class="edge-thickness-normal edge-pattern-solid edge-thickness-normal edge-pattern-solid flowchart-link" style="stroke-dasharray: 0 0 137.22503662109375 4; stroke-dashoffset: 0;;" data-edge="true" data-et="edge" data-id="L_nest_vol_0" data-points="W3sieCI6MjE5LjU1NDY4NzUsInkiOjc0OS41MDYyNTQxOTYxNjd9LHsieCI6MjE5LjU1NDY4NzUsInkiOjgyNi43MzEyNTM2MjM5NjI0fSx7IngiOjIxOS41NTQ2ODc1LCJ5Ijo4OTQuNzMxMjUxNzE2NjEzOH1d" data-look="neo" marker-end="url(#my-svg_flowchart-v2-pointEnd-margin)"/><path d="M231.5546875,475.7062520980835L231.5546875,508.635184286218Q231.5546875,515.7062520980835 238.62575531186548,515.7062520980835L314.5383071881345,515.7062520980835Q321.609375,515.7062520980835 321.609375,522.777319909949L321.609375,604.0351858120969Q321.609375,611.1062536239624 314.5383071881345,611.1062536239624L238.62575531186548,611.1062536239624Q231.5546875,611.1062536239624 231.5546875,618.1773214358279L231.5546875,647.1062536239624" id="my-svg-L_web_apic_0" class="edge-thickness-normal edge-pattern-dotted edge-thickness-normal edge-pattern-solid flowchart-link" style="stroke-dasharray: 0 0 2 2 2 2 2 2 2 2 2 2 2 2 2 2 2 2 2 2 2 2 2 2 2 2 2 2 2 2 2 2 2 2 2 2 2 2 2 2 2 2 2 2 2 2 2 2 2 2 2 2 2 2 2 2 2 2 2 2 2 2 2 2 2 2 2 2 2 2 2 2 2 2 2 2 2 2 2 2 2 2 2 2 2 2 2 2 2 2 2 2 2 2 2 2 2 2 2 2 2 2 2 2 2 2 2 2 2 2 2 2 2 2 2 2 2 2 2 2 2 2 2 2 2 2 2 2 2 2 2 2 2 2 2 2 2 2 2 2 2 2 2 2 2 2 2 2 2 2 2 2 2 2 2 2 2 2 2 2 2 2 2 2 2 2 2 2 2 2 4; stroke-dashoffset: 0;;" data-edge="true" data-et="edge" data-id="L_web_apic_0" data-points="W3sieCI6MjMxLjU1NDY4NzUsInkiOjQ3NS43MDYyNTIwOTgwODM1fSx7IngiOjIzMS41NTQ2ODc1LCJ5Ijo1MTUuNzA2MjUyMDk4MDgzNX0seyJ4IjozMjEuNjA5Mzc1LCJ5Ijo1MTUuNzA2MjUyMDk4MDgzNX0seyJ4IjozMjEuNjA5Mzc1LCJ5Ijo2MTEuMTA2MjUzNjIzOTYyNH0seyJ4IjoyMzEuNTU0Njg3NSwieSI6NjExLjEwNjI1MzYyMzk2MjR9LHsieCI6MjMxLjU1NDY4NzUsInkiOjY1MS4xMDYyNTM2MjM5NjI0fV0=" data-look="neo" marker-end="url(#my-svg_flowchart-v2-pointEnd-margin)"/></g><g class="edgeLabels"><g class="edgeLabel" transform="translate(219.40625, 125.10000228881836)"><g class="label" data-id="L_browser_nginx_0" transform="translate(0, -16.70000171661377)"><g><rect class="background" style="" x="-91.3515625" y="-0.9999990463256836" width="182.703125" height="35.400001525878906"/><text y="-10.1" text-anchor="middle" style=""><tspan class="text-outer-tspan row" x="0" y="-0.1em" dy="1.1em" text-anchor="middle"><tspan font-style="normal" class="text-inner-tspan" font-weight="normal">HTTP</tspan><tspan font-style="normal" class="text-inner-tspan" font-weight="normal"> ·</tspan><tspan font-style="normal" class="text-inner-tspan" font-weight="normal"> host</tspan><tspan font-style="normal" class="text-inner-tspan" font-weight="normal"> port</tspan><tspan font-style="normal" class="text-inner-tspan" font-weight="normal"> APP_PORT</tspan></tspan><tspan class="text-outer-tspan row" x="0" y="1em" dy="1.1em" text-anchor="middle"><tspan font-style="normal" class="text-inner-tspan" font-weight="normal">(8080)</tspan></tspan></text></g></g></g><g class="edgeLabel" transform="translate(129.3046875, 563.406252861023)"><g class="label" data-id="L_nginx_nest_0" transform="translate(0, -9.000000476837158)"><g><rect class="background" style="" x="-93.3046875" y="-0.9999990463256836" width="186.609375" height="19.999999046325684"/><text y="-10.1" text-anchor="middle" style=""><tspan class="text-outer-tspan row" x="0" y="-0.1em" dy="1.1em" text-anchor="middle"><tspan font-style="normal" class="text-inner-tspan" font-weight="normal">proxies</tspan><tspan font-style="normal" class="text-inner-tspan" font-weight="normal"> /api/</tspan><tspan font-style="normal" class="text-inner-tspan" font-weight="normal"> ·</tspan><tspan font-style="normal" class="text-inner-tspan" font-weight="normal"> HTTP</tspan><tspan font-style="normal" class="text-inner-tspan" font-weight="normal"> api:3000</tspan></tspan></text></g></g></g><g class="edgeLabel" transform="translate(219.125, 860.7312526702881)"><g class="label" data-id="L_nest_vol_0" transform="translate(0, -9.000000476837158)"><g><rect class="background" style="" x="-73.5703125" y="-0.9999990463256836" width="147.140625" height="19.999999046325684"/><text y="-10.1" text-anchor="middle" style=""><tspan class="text-outer-tspan row" x="0" y="-0.1em" dy="1.1em" text-anchor="middle"><tspan font-style="normal" class="text-inner-tspan" font-weight="normal">reads/writes</tspan><tspan font-style="normal" class="text-inner-tspan" font-weight="normal"> ·</tspan><tspan font-style="normal" class="text-inner-tspan" font-weight="normal"> libsql</tspan><tspan font-style="normal" class="text-inner-tspan" font-weight="normal"> file</tspan></tspan></text></g></g></g><g class="edgeLabel" transform="translate(321.2578125, 563.406252861023)"><g class="label" data-id="L_web_apic_0" transform="translate(0, -16.70000171661377)"><g><rect class="background" style="" x="-78.6484375" y="-0.9999990463256836" width="157.296875" height="35.400001525878906"/><text y="-10.1" text-anchor="middle" style=""><tspan class="text-outer-tspan row" x="0" y="-0.1em" dy="1.1em" text-anchor="middle"><tspan font-style="normal" class="text-inner-tspan" font-weight="normal">depends_on:</tspan><tspan font-style="normal" class="text-inner-tspan" font-weight="normal"> api</tspan><tspan font-style="normal" class="text-inner-tspan" font-weight="normal"> healthy</tspan></tspan><tspan class="text-outer-tspan row" x="0" y="1em" dy="1.1em" text-anchor="middle"><tspan font-style="normal" class="text-inner-tspan" font-weight="normal">(GET</tspan><tspan font-style="normal" class="text-inner-tspan" font-weight="normal"> /api/health)</tspan></tspan></text></g></g></g></g><g class="nodes"><g class="node default" id="my-svg-flowchart-browser-0" data-look="neo" transform="translate(219.5546875, 39.70000076293945)"><g class="basic label-container outer-path"><path d="M-59.22499942779541 -27.700000762939453 C-26.067433877132643 -27.700000762939453, 7.090131673530124 -27.700000762939453, 59.22499942779541 -27.700000762939453 C59.22499942779541 -27.700000762939453, 59.22499942779541 -27.700000762939453, 59.22499942779541 -27.700000762939453 C59.81556050998691 -27.681062618490987, 60.4061215921784 -27.662124474042518, 60.99974457014285 -27.64308814055623 C61.58643450120272 -27.58649086850476, 62.173124432262576 -27.529893596453288, 62.76719690401875 -27.47258413957965 C63.46548041275587 -27.35969107715652, 64.163763921493 -27.24679801473339, 64.52009358866587 -27.189189397522718 C65.19416646473574 -27.03533666229637, 65.86823934080562 -26.88148392707002, 66.25123159561184 -26.79406844416853 C66.80438770085298 -26.629894615708608, 67.35754380609413 -26.46572078724868, 67.95349730745819 -26.288844916267593 C68.32405489233962 -26.15247629963446, 68.69461247722106 -26.01610768300133, 69.61989574926008 -25.675594885666165 C70.10811703732136 -25.459473804011377, 70.59633832538266 -25.243352722356587, 71.24357933237879 -24.956838328281705 C71.77335942830068 -24.6804523915796, 72.30313952422257 -24.404066454877498, 72.81787599269227 -24.135528768981306 C73.1721962988034 -23.920737717199497, 73.52651660491452 -23.70594666541769, 74.33631660753771 -23.21504114491447 C74.64466973596943 -22.99994735091229, 74.95302286440115 -22.784853556910114, 75.79266157872422 -22.19915793717247 C76.1415818959078 -21.920903269378154, 76.49050221309139 -21.64264860158384, 77.18092647238016 -21.09205362776219 C77.4902817460662 -20.811105353292543, 77.79963701975224 -20.530157078822896, 78.49540661027565 -19.898277545764113 C78.85279894095669 -19.529240621879904, 79.21019127163771 -19.160203697995694, 79.73070051156894 -18.622735173163356 C80.16951344422141 -18.10728053330656, 80.60832637687386 -17.591825893449766, 80.88173208864993 -17.27066798717189 C81.2595378263295 -16.764442717492013, 81.63734356400909 -16.258217447812136, 81.94377150587286 -15.847631921874477 C82.18680070277894 -15.474273812949768, 82.429829899685 -15.100915704025057, 82.91245461546565 -14.35947453770369 C83.25200275065018 -13.756572440706506, 83.5915508858347 -13.153670343709322, 83.7838008907491 -12.812310992559848 C84.06524615277593 -12.227883883997261, 84.34669141480273 -11.643456775434675, 84.55422978297489 -11.212498913315498 C84.7225618727709 -10.796715397039797, 84.8908939625669 -10.380931880764095, 85.22057543456836 -9.56661227096286 C85.42066804099514 -8.96396522083281, 85.6207606474219 -8.361318170702758, 85.78009968831644 -7.881414366756927 C85.92036616638379 -7.346517494010005, 86.06063264445113 -6.811620621263083, 86.2305033390429 -6.163830040359912 C86.31810087841 -5.714035189456372, 86.40569841777709 -5.264240338552833, 86.5699355815356 -4.4209172141896715 C86.65372193518948 -3.7710868007371046, 86.73750828884337 -3.121256387284538, 86.79700161590219 -2.6598378909025446 C86.82219315693972 -2.267459304997201, 86.84738469797723 -1.8750807190918577, 86.91076837910194 -0.8878287231882611 C86.91076837910194 -0.23564732426151191, 86.91076837910194 0.4165340746652373, 86.91076837910194 0.8878287231882545 C86.86636907030034 1.5793837962502018, 86.82196976149872 2.2709388693121495, 86.79700161590219 2.659837890902526 C86.73825420438848 3.1154712136142897, 86.67950679287478 3.5711045363260534, 86.56993558153562 4.420917214189652 C86.49511283834924 4.805116186659287, 86.42029009516288 5.189315159128922, 86.2305033390429 6.163830040359906 C86.0742576153733 6.7596627020370885, 85.9180118917037 7.3554953637142715, 85.78009968831644 7.88141436675691 C85.59196084732297 8.448058579975749, 85.40382200632949 9.014702793194587, 85.22057543456836 9.566612270962843 C85.03593508742131 10.02267749819432, 84.85129474027426 10.478742725425798, 84.55422978297489 11.21249891331549 C84.34836465154564 11.639982263536497, 84.14249952011639 12.067465613757506, 83.7838008907491 12.81231099255984 C83.45071198957464 13.403744065503776, 83.11762308840018 13.995177138447712, 82.91245461546565 14.359474537703683 C82.56085167925872 14.899631066325746, 82.20924874305179 15.43978759494781, 81.94377150587286 15.847631921874463 C81.69710999759397 16.178135871642493, 81.45044848931508 16.508639821410522, 80.88173208864993 17.270667987171883 C80.52233415131523 17.692837254687184, 80.16293621398053 18.11500652220249, 79.73070051156895 18.62273517316334 C79.47492597761551 18.88684337895004, 79.21915144366207 19.15095158473674, 78.49540661027565 19.89827754576411 C78.09041223606583 20.26608272085753, 77.685417861856 20.633887895950945, 77.18092647238018 21.092053627762173 C76.78008989903873 21.41171012829279, 76.37925332569729 21.7313666288234, 75.79266157872422 22.199157937172465 C75.42955992555561 22.452441932005662, 75.066458272387 22.70572592683886, 74.33631660753773 23.21504114491446 C73.75889750228707 23.565075999808716, 73.18147839703641 23.915110854702977, 72.81787599269227 24.135528768981303 C72.30949044841114 24.40075318179628, 71.80110490413003 24.66597759461126, 71.2435793323788 24.9568383282817 C70.7109798534967 25.192604318580607, 70.1783803746146 25.428370308879508, 69.61989574926008 25.675594885666165 C68.99611433560237 25.90515221206438, 68.37233292194466 26.134709538462594, 67.9534973074582 26.28884491626759 C67.38255948566271 26.45829626486271, 66.81162166386721 26.627747613457835, 66.25123159561188 26.794068444168524 C65.77151816839128 26.90355990350896, 65.29180474117068 27.013051362849396, 64.52009358866589 27.189189397522718 C64.00129739642782 27.27306434255921, 63.48250120418973 27.3569392875957, 62.767196904018775 27.472584139579645 C62.22275030657537 27.525106248042178, 61.678303709131974 27.57762835650471, 60.99974457014285 27.64308814055623 C60.63663135729693 27.654732474535205, 60.273518144450996 27.666376808514183, 59.22499942779542 27.700000762939453 C59.22499942779542 27.700000762939453, 59.22499942779541 27.700000762939453, 59.22499942779541 27.700000762939453 C19.611452931239057 27.700000762939453, -20.002093565317296 27.700000762939453, -59.2249994277954 27.700000762939453 C-59.6696884684399 27.685740450940692, -60.1143775090844 27.671480138941934, -60.999744570142845 27.64308814055623 C-61.37583013769227 27.606807618163806, -61.75191570524169 27.570527095771382, -62.76719690401876 27.472584139579645 C-63.398550413596936 27.37051180037064, -64.02990392317511 27.268439461161634, -64.52009358866589 27.189189397522718 C-65.03703754053166 27.0712003138839, -65.55398149239743 26.95321123024508, -66.25123159561184 26.79406844416853 C-66.69307276811357 26.66293230344166, -67.13491394061529 26.53179616271479, -67.95349730745818 26.2888449162676 C-68.60069766618683 26.050669201600922, -69.24789802491549 25.812493486934244, -69.61989574926008 25.675594885666165 C-70.10267715993578 25.46188187636175, -70.58545857061146 25.248168867057334, -71.24357933237879 24.95683832828171 C-71.73265544193804 24.701687635192844, -72.2217315514973 24.446536942103982, -72.81787599269225 24.13552876898131 C-73.16196176671929 23.926941950693664, -73.50604754074634 23.718355132406018, -74.3363166075377 23.215041144914476 C-74.74783280006898 22.927985263253515, -75.15934899260026 22.64092938159255, -75.7926615787242 22.199157937172473 C-76.2161216062764 21.861459833944192, -76.6395816338286 21.52376173071591, -77.18092647238016 21.092053627762194 C-77.61523758204038 20.69762376921105, -78.0495486917006 20.303193910659907, -78.49540661027564 19.898277545764127 C-78.88927498045476 19.491576116359607, -79.28314335063388 19.084874686955086, -79.73070051156894 18.62273517316335 C-80.11483514331293 18.171508776837108, -80.4989697750569 17.720282380510866, -80.88173208864991 17.27066798717189 C-81.18517482673163 16.86408236234453, -81.48861756481334 16.45749673751717, -81.94377150587286 15.84763192187448 C-82.18786109735578 15.472644762123911, -82.43195068883871 15.097657602373342, -82.91245461546563 14.359474537703703 C-83.1038121242417 14.019699903822872, -83.29516963301775 13.679925269942041, -83.78380089074909 12.81231099255985 C-84.01053421317968 12.341494397216803, -84.23726753561027 11.870677801873756, -84.55422978297489 11.212498913315502 C-84.7128284503678 10.82075713855837, -84.87142711776072 10.42901536380124, -85.22057543456836 9.566612270962864 C-85.42846590641186 8.940479292618768, -85.63635637825536 8.314346314274673, -85.78009968831644 7.88141436675692 C-85.93370828841044 7.295638200210064, -86.08731688850445 6.709862033663208, -86.23050333904288 6.163830040359915 C-86.30513920409985 5.7805906475881175, -86.37977506915679 5.39735125481632, -86.5699355815356 4.420917214189674 C-86.65059530924538 3.7953362941374813, -86.73125503695515 3.1697553740852884, -86.79700161590219 2.6598378909025606 C-86.83326299411021 2.095037655654953, -86.86952437231824 1.5302374204073457, -86.91076837910194 0.8878287231882646 C-86.91076837910194 0.2419817905900865, -86.91076837910194 -0.40386514200809154, -86.91076837910194 -0.8878287231882511 C-86.86917714490436 -1.5356457676555508, -86.82758591070677 -2.1834628121228503, -86.79700161590219 -2.6598378909025224 C-86.73499049773716 -3.1407838779102626, -86.67297937957211 -3.6217298649180023, -86.56993558153562 -4.420917214189662 C-86.4368827588204 -5.104115338108225, -86.30382993610519 -5.787313462026789, -86.2305033390429 -6.163830040359902 C-86.11696490232629 -6.5968013074300575, -86.00342646560969 -7.029772574500212, -85.78009968831644 -7.881414366756906 C-85.63109128296236 -8.330203942418148, -85.48208287760826 -8.778993518079389, -85.22057543456836 -9.566612270962828 C-85.05899597504565 -9.965716659910248, -84.89741651552295 -10.364821048857667, -84.55422978297489 -11.212498913315487 C-84.32484051686345 -11.688830632539908, -84.09545125075202 -12.165162351764327, -83.7838008907491 -12.812310992559837 C-83.5457345834258 -13.235021828040045, -83.30766827610249 -13.657732663520253, -82.91245461546565 -14.359474537703692 C-82.59268437527192 -14.85072749697374, -82.27291413507818 -15.341980456243787, -81.94377150587286 -15.847631921874472 C-81.54946114784622 -16.37597187921757, -81.15515078981957 -16.904311836560666, -80.88173208864993 -17.270667987171883 C-80.60828301405093 -17.591876829889003, -80.33483393945193 -17.913085672606123, -79.73070051156895 -18.62273517316334 C-79.29335047841987 -19.074334989495274, -78.85600044527078 -19.525934805827205, -78.49540661027567 -19.8982775457641 C-78.00975052683678 -20.339337550987473, -77.5240944433979 -20.780397556210847, -77.1809264723802 -21.09205362776217 C-76.90287440397931 -21.313792753035585, -76.62482233557843 -21.535531878309, -75.79266157872422 -22.199157937172462 C-75.38740351922873 -22.481848416137876, -74.98214545973323 -22.76453889510329, -74.33631660753773 -23.215041144914455 C-73.76107028279426 -23.563758847496576, -73.1858239580508 -23.912476550078697, -72.81787599269227 -24.1355287689813 C-72.34315574235524 -24.383190019509296, -71.86843549201821 -24.630851270037297, -71.2435793323788 -24.9568383282817 C-70.84109985082637 -25.13500405563534, -70.43862036927395 -25.313169782988975, -69.6198957492601 -25.67559488566616 C-69.13641365678029 -25.853520764958198, -68.6529315643005 -26.031446644250234, -67.95349730745822 -26.28884491626759 C-67.29664045260525 -26.48379658287596, -66.63978359775227 -26.678748249484332, -66.25123159561188 -26.79406844416852 C-65.58994507225262 -26.945002777827423, -64.92865854889335 -27.095937111486325, -64.5200935886659 -27.189189397522714 C-63.8291377816016 -27.300897773966557, -63.1381819745373 -27.4126061504104, -62.767196904018775 -27.472584139579645 C-62.07350243905516 -27.539504010325032, -61.37980797409155 -27.606423881070416, -60.99974457014286 -27.64308814055623 C-60.42910131368015 -27.66138755910127, -59.85845805721745 -27.679686977646313, -59.22499942779542 -27.700000762939453 C-59.22499942779542 -27.700000762939453, -59.22499942779541 -27.700000762939453, -59.22499942779541 -27.700000762939453" stroke="none" stroke-width="0" fill="#4a6fa5" style="fill:#4a6fa5 !important;stroke:#2f4a73 !important"/><path d="M-59.22499942779541 -27.700000762939453 C-22.166053358864886 -27.700000762939453, 14.892892710065638 -27.700000762939453, 59.22499942779541 -27.700000762939453 M-59.22499942779541 -27.700000762939453 C-33.69912620756941 -27.700000762939453, -8.173252987343396 -27.700000762939453, 59.22499942779541 -27.700000762939453 M59.22499942779541 -27.700000762939453 C59.22499942779541 -27.700000762939453, 59.22499942779541 -27.700000762939453, 59.22499942779541 -27.700000762939453 M59.22499942779541 -27.700000762939453 C59.22499942779541 -27.700000762939453, 59.22499942779541 -27.700000762939453, 59.22499942779541 -27.700000762939453 M59.22499942779541 -27.700000762939453 C59.58663671541612 -27.688403759009734, 59.94827400303683 -27.67680675508002, 60.99974457014285 -27.64308814055623 M59.22499942779541 -27.700000762939453 C59.7784601778788 -27.682252353930277, 60.331920927962194 -27.6645039449211, 60.99974457014285 -27.64308814055623 M60.99974457014285 -27.64308814055623 C61.3858529583806 -27.60584072870621, 61.77196134661835 -27.56859331685619, 62.76719690401875 -27.47258413957965 M60.99974457014285 -27.64308814055623 C61.39290969966331 -27.60515997336164, 61.786074829183775 -27.56723180616705, 62.76719690401875 -27.47258413957965 M62.76719690401875 -27.47258413957965 C63.21235295396298 -27.400614761661394, 63.6575090039072 -27.328645383743137, 64.52009358866587 -27.189189397522718 M62.76719690401875 -27.47258413957965 C63.19155438560688 -27.4039773128979, 63.615911867195 -27.335370486216153, 64.52009358866587 -27.189189397522718 M64.52009358866587 -27.189189397522718 C65.05187044386447 -27.067814800491924, 65.58364729906306 -26.946440203461126, 66.25123159561184 -26.79406844416853 M64.52009358866587 -27.189189397522718 C65.09416024013684 -27.058162430459465, 65.66822689160782 -26.927135463396212, 66.25123159561184 -26.79406844416853 M66.25123159561184 -26.79406844416853 C66.75558925378824 -26.644377738649148, 67.25994691196463 -26.494687033129765, 67.95349730745819 -26.288844916267593 M66.25123159561184 -26.79406844416853 C66.6732179303849 -26.66882511505936, 67.09520426515796 -26.543581785950188, 67.95349730745819 -26.288844916267593 M67.95349730745819 -26.288844916267593 C68.44841238339137 -26.106711593379373, 68.94332745932454 -25.924578270491157, 69.61989574926008 -25.675594885666165 M67.95349730745819 -26.288844916267593 C68.47076158237869 -26.098486881558312, 68.98802585729918 -25.908128846849028, 69.61989574926008 -25.675594885666165 M69.61989574926008 -25.675594885666165 C70.13618589827537 -25.447048551900217, 70.65247604729065 -25.218502218134272, 71.24357933237879 -24.956838328281705 M69.61989574926008 -25.675594885666165 C70.08583090137304 -25.46933921530097, 70.55176605348599 -25.26308354493577, 71.24357933237879 -24.956838328281705 M71.24357933237879 -24.956838328281705 C71.68372378733855 -24.72721524805518, 72.1238682422983 -24.497592167828653, 72.81787599269227 -24.135528768981306 M71.24357933237879 -24.956838328281705 C71.74426113397348 -24.695632953091753, 72.24494293556818 -24.4344275779018, 72.81787599269227 -24.135528768981306 M72.81787599269227 -24.135528768981306 C73.41945186095886 -23.770849942385887, 74.02102772922547 -23.406171115790464, 74.33631660753771 -23.21504114491447 M72.81787599269227 -24.135528768981306 C73.39104782206039 -23.7880686376868, 73.96421965142852 -23.440608506392294, 74.33631660753771 -23.21504114491447 M74.33631660753771 -23.21504114491447 C74.65098231671003 -22.99554396785487, 74.96564802588234 -22.77604679079527, 75.79266157872422 -22.19915793717247 M74.33631660753771 -23.21504114491447 C74.68056909352323 -22.974905513140904, 75.02482157950875 -22.73476988136734, 75.79266157872422 -22.19915793717247 M75.79266157872422 -22.19915793717247 C76.28948125423054 -21.802957466882994, 76.78630092973684 -21.40675699659352, 77.18092647238016 -21.09205362776219 M75.79266157872422 -22.19915793717247 C76.20019519470145 -21.874160723355608, 76.60772881067868 -21.54916350953875, 77.18092647238016 -21.09205362776219 M77.18092647238016 -21.09205362776219 C77.53889056921838 -20.766960106224715, 77.8968546660566 -20.44186658468724, 78.49540661027565 -19.898277545764113 M77.18092647238016 -21.09205362776219 C77.45445892965606 -20.84363868733645, 77.72799138693196 -20.595223746910712, 78.49540661027565 -19.898277545764113 M78.49540661027565 -19.898277545764113 C78.98431137271241 -19.39344323872066, 79.47321613514919 -18.888608931677208, 79.73070051156894 -18.622735173163356 M78.49540661027565 -19.898277545764113 C78.89404009798187 -19.486655741289443, 79.29267358568808 -19.075033936814773, 79.73070051156894 -18.622735173163356 M79.73070051156894 -18.622735173163356 C80.11056849372815 -18.17652062621864, 80.49043647588735 -17.730306079273923, 80.88173208864993 -17.27066798717189 M79.73070051156894 -18.622735173163356 C80.1158972019192 -18.170261222365347, 80.50109389226945 -17.717787271567342, 80.88173208864993 -17.27066798717189 M80.88173208864993 -17.27066798717189 C81.25248269721878 -16.773895947764906, 81.62323330578764 -16.277123908357922, 81.94377150587286 -15.847631921874477 M80.88173208864993 -17.27066798717189 C81.11334315603841 -16.960330257073636, 81.3449542234269 -16.649992526975378, 81.94377150587286 -15.847631921874477 M81.94377150587286 -15.847631921874477 C82.32201573692849 -15.26654721017545, 82.70025996798412 -14.685462498476422, 82.91245461546565 -14.35947453770369 M81.94377150587286 -15.847631921874477 C82.28456531370605 -15.324081117091835, 82.62535912153926 -14.800530312309192, 82.91245461546565 -14.35947453770369 M82.91245461546565 -14.35947453770369 C83.12257886341436 -13.986377658083418, 83.33270311136306 -13.613280778463148, 83.7838008907491 -12.812310992559848 M82.91245461546565 -14.35947453770369 C83.11082056331396 -14.007255710568668, 83.30918651116227 -13.655036883433644, 83.7838008907491 -12.812310992559848 M83.7838008907491 -12.812310992559848 C84.05384655614556 -12.25155539031249, 84.32389222154202 -11.690799788065132, 84.55422978297489 -11.212498913315498 M83.7838008907491 -12.812310992559848 C83.98193068646559 -12.400890232456073, 84.18006048218207 -11.989469472352297, 84.55422978297489 -11.212498913315498 M84.55422978297489 -11.212498913315498 C84.7612481606077 -10.701159518134391, 84.96826653824053 -10.189820122953282, 85.22057543456836 -9.56661227096286 M84.55422978297489 -11.212498913315498 C84.70613573850736 -10.837288266248443, 84.85804169403983 -10.46207761918139, 85.22057543456836 -9.56661227096286 M85.22057543456836 -9.56661227096286 C85.4443387156024 -8.892672920325538, 85.66810199663645 -8.218733569688217, 85.78009968831644 -7.881414366756927 M85.22057543456836 -9.56661227096286 C85.43177345251839 -8.930517490731827, 85.6429714704684 -8.294422710500793, 85.78009968831644 -7.881414366756927 M85.78009968831644 -7.881414366756927 C85.9401397108201 -7.271112399165959, 86.10017973332376 -6.6608104315749905, 86.2305033390429 -6.163830040359912 M85.78009968831644 -7.881414366756927 C85.93719036393237 -7.282359537103871, 86.09428103954832 -6.683304707450814, 86.2305033390429 -6.163830040359912 M86.2305033390429 -6.163830040359912 C86.3043740387391 -5.784519609997799, 86.37824473843531 -5.405209179635686, 86.5699355815356 -4.4209172141896715 M86.2305033390429 -6.163830040359912 C86.31631209766668 -5.7232202005143, 86.40212085629048 -5.282610360668687, 86.5699355815356 -4.4209172141896715 M86.5699355815356 -4.4209172141896715 C86.65624842734412 -3.7514918264980373, 86.74256127315265 -3.082066438806403, 86.79700161590219 -2.6598378909025446 M86.5699355815356 -4.4209172141896715 C86.64971517933743 -3.802162407902134, 86.72949477713928 -3.1834076016145962, 86.79700161590219 -2.6598378909025446 M86.79700161590219 -2.6598378909025446 C86.84026426118838 -1.9859872695914695, 86.88352690647457 -1.3121366482803944, 86.91076837910194 -0.8878287231882611 M86.79700161590219 -2.6598378909025446 C86.84085187859627 -1.9768346541473072, 86.88470214129036 -1.29383141739207, 86.91076837910194 -0.8878287231882611 M86.91076837910194 -0.8878287231882611 C86.91076837910194 -0.3327053653929939, 86.91076837910194 0.22241799240227333, 86.91076837910194 0.8878287231882545 M86.91076837910194 -0.8878287231882611 C86.91076837910194 -0.280341484553833, 86.91076837910194 0.3271457540805951, 86.91076837910194 0.8878287231882545 M86.91076837910194 0.8878287231882545 C86.8706548420798 1.5126294413722703, 86.83054130505766 2.1374301595562857, 86.79700161590219 2.659837890902526 M86.91076837910194 0.8878287231882545 C86.86570292837432 1.5897594944479856, 86.8206374776467 2.291690265707717, 86.79700161590219 2.659837890902526 M86.79700161590219 2.659837890902526 C86.73784715281974 3.1186282252000517, 86.67869268973729 3.5774185594975774, 86.56993558153562 4.420917214189652 M86.79700161590219 2.659837890902526 C86.71815140507087 3.27138455537503, 86.63930119423954 3.882931219847534, 86.56993558153562 4.420917214189652 M86.56993558153562 4.420917214189652 C86.4578196581079 4.996608785282212, 86.34570373468017 5.572300356374772, 86.2305033390429 6.163830040359906 M86.56993558153562 4.420917214189652 C86.45034044485612 5.035012964597749, 86.33074530817663 5.6491087150058465, 86.2305033390429 6.163830040359906 M86.2305033390429 6.163830040359906 C86.05724042334231 6.824556630548949, 85.8839775076417 7.485283220737994, 85.78009968831644 7.88141436675691 M86.2305033390429 6.163830040359906 C86.09652439385532 6.674749825202275, 85.96254544866775 7.185669610044644, 85.78009968831644 7.88141436675691 M85.78009968831644 7.88141436675691 C85.56258986366599 8.536519303119805, 85.34508003901554 9.191624239482701, 85.22057543456836 9.566612270962843 M85.78009968831644 7.88141436675691 C85.63785461863728 8.30983385295649, 85.49560954895811 8.73825333915607, 85.22057543456836 9.566612270962843 M85.22057543456836 9.566612270962843 C85.06106546213266 9.960604986794559, 84.90155548969695 10.354597702626277, 84.55422978297489 11.21249891331549 M85.22057543456836 9.566612270962843 C85.0021398100075 10.106152486793652, 84.78370418544665 10.645692702624462, 84.55422978297489 11.21249891331549 M84.55422978297489 11.21249891331549 C84.24802226395545 11.848345378350688, 83.94181474493601 12.484191843385885, 83.7838008907491 12.81231099255984 M84.55422978297489 11.21249891331549 C84.28134571222476 11.779148525011871, 84.00846164147465 12.345798136708252, 83.7838008907491 12.81231099255984 M83.7838008907491 12.81231099255984 C83.55088482497491 13.225877052651068, 83.31796875920074 13.639443112742295, 82.91245461546565 14.359474537703683 M83.7838008907491 12.81231099255984 C83.50636043376082 13.304934617835215, 83.22891997677253 13.797558243110588, 82.91245461546565 14.359474537703683 M82.91245461546565 14.359474537703683 C82.63194916032108 14.79040624306711, 82.35144370517652 15.221337948430536, 81.94377150587286 15.847631921874463 M82.91245461546565 14.359474537703683 C82.66643155960169 14.737432017951392, 82.42040850373773 15.115389498199102, 81.94377150587286 15.847631921874463 M81.94377150587286 15.847631921874463 C81.52846822638794 16.40410048147715, 81.11316494690304 16.960569041079843, 80.88173208864993 17.270667987171883 M81.94377150587286 15.847631921874463 C81.59253756794311 16.318253400630322, 81.24130363001336 16.788874879386185, 80.88173208864993 17.270667987171883 M80.88173208864993 17.270667987171883 C80.49079967242402 17.729879447955483, 80.09986725619811 18.189090908739082, 79.73070051156895 18.62273517316334 M80.88173208864993 17.270667987171883 C80.62724136365834 17.569607273679473, 80.37275063866676 17.868546560187067, 79.73070051156895 18.62273517316334 M79.73070051156895 18.62273517316334 C79.37856038034893 18.98634876989046, 79.02642024912892 19.349962366617575, 78.49540661027565 19.89827754576411 M79.73070051156895 18.62273517316334 C79.27867325688503 19.089490425752288, 78.82664600220112 19.556245678341234, 78.49540661027565 19.89827754576411 M78.49540661027565 19.89827754576411 C77.99563892478687 20.352153334596665, 77.4958712392981 20.80602912342922, 77.18092647238018 21.092053627762173 M78.49540661027565 19.89827754576411 C78.0246855342373 20.325773972424958, 77.55396445819895 20.753270399085807, 77.18092647238018 21.092053627762173 M77.18092647238018 21.092053627762173 C76.80713153344199 21.390145144464302, 76.4333365945038 21.68823666116643, 75.79266157872422 22.199157937172465 M77.18092647238018 21.092053627762173 C76.66206229869933 21.50583399871711, 76.14319812501847 21.91961436967205, 75.79266157872422 22.199157937172465 M75.79266157872422 22.199157937172465 C75.30121352692538 22.54197082366406, 74.80976547512654 22.884783710155656, 74.33631660753773 23.21504114491446 M75.79266157872422 22.199157937172465 C75.29097102675237 22.54911554839406, 74.78928047478053 22.899073159615654, 74.33631660753773 23.21504114491446 M74.33631660753773 23.21504114491446 C73.96717738538773 23.438815510684645, 73.59803816323773 23.66258987645483, 72.81787599269227 24.135528768981303 M74.33631660753773 23.21504114491446 C73.96376094870126 23.44088657468119, 73.5912052898648 23.666732004447923, 72.81787599269227 24.135528768981303 M72.81787599269227 24.135528768981303 C72.35260004489471 24.37826293292382, 71.88732409709715 24.620997096866336, 71.2435793323788 24.9568383282817 M72.81787599269227 24.135528768981303 C72.26069881116855 24.42620774769321, 71.70352162964483 24.716886726405118, 71.2435793323788 24.9568383282817 M71.2435793323788 24.9568383282817 C70.65941159598435 25.21543205646331, 70.07524385958992 25.474025784644923, 69.61989574926008 25.675594885666165 M71.2435793323788 24.9568383282817 C70.64346330218025 25.222491893041063, 70.04334727198169 25.488145457800428, 69.61989574926008 25.675594885666165 M69.61989574926008 25.675594885666165 C69.2526921502235 25.81072920450449, 68.8854885511869 25.945863523342815, 67.9534973074582 26.28884491626759 M69.61989574926008 25.675594885666165 C69.0641243122727 25.880123911972365, 68.50835287528533 26.084652938278566, 67.9534973074582 26.28884491626759 M67.9534973074582 26.28884491626759 C67.27599674387625 26.489923527265688, 66.59849618029429 26.691002138263787, 66.25123159561188 26.794068444168524 M67.9534973074582 26.28884491626759 C67.48659532918747 26.42741897259985, 67.01969335091674 26.56599302893211, 66.25123159561188 26.794068444168524 M66.25123159561188 26.794068444168524 C65.69954239597567 26.919987903877015, 65.14785319633947 27.045907363585503, 64.52009358866589 27.189189397522718 M66.25123159561188 26.794068444168524 C65.86823306030306 26.881485360553746, 65.48523452499424 26.968902276938973, 64.52009358866589 27.189189397522718 M64.52009358866589 27.189189397522718 C64.13804641326142 27.250955822022018, 63.75599923785695 27.312722246521314, 62.767196904018775 27.472584139579645 M64.52009358866589 27.189189397522718 C63.854723183710064 27.296761324571417, 63.18935277875424 27.40433325162012, 62.767196904018775 27.472584139579645 M62.767196904018775 27.472584139579645 C62.228719655865106 27.52453039209539, 61.69024240771143 27.576476644611137, 60.99974457014285 27.64308814055623 M62.767196904018775 27.472584139579645 C62.072039352005 27.53964515257314, 61.37688179999122 27.606706165566635, 60.99974457014285 27.64308814055623 M60.99974457014285 27.64308814055623 C60.321096321207264 27.664851068990913, 59.64244807227168 27.686613997425592, 59.22499942779542 27.700000762939453 M60.99974457014285 27.64308814055623 C60.59383325888452 27.656104926249846, 60.187921947626194 27.669121711943465, 59.22499942779542 27.700000762939453 M59.22499942779542 27.700000762939453 C59.22499942779542 27.700000762939453, 59.22499942779541 27.700000762939453, 59.22499942779541 27.700000762939453 M59.22499942779542 27.700000762939453 C59.22499942779542 27.700000762939453, 59.22499942779542 27.700000762939453, 59.22499942779541 27.700000762939453 M59.22499942779541 27.700000762939453 C15.7294122873164 27.700000762939453, -27.76617485316261 27.700000762939453, -59.2249994277954 27.700000762939453 M59.22499942779541 27.700000762939453 C15.68010015125504 27.700000762939453, -27.86479912528533 27.700000762939453, -59.2249994277954 27.700000762939453 M-59.2249994277954 27.700000762939453 C-59.6627857812304 27.685961806684237, -60.100572134665384 27.67192285042902, -60.999744570142845 27.64308814055623 M-59.2249994277954 27.700000762939453 C-59.642644977363545 27.68660768306255, -60.060290526931695 27.673214603185645, -60.999744570142845 27.64308814055623 M-60.999744570142845 27.64308814055623 C-61.39898924686291 27.60457348675502, -61.79823392358298 27.566058832953807, -62.76719690401876 27.472584139579645 M-60.999744570142845 27.64308814055623 C-61.418816955187545 27.60266073157925, -61.83788934023224 27.562233322602268, -62.76719690401876 27.472584139579645 M-62.76719690401876 27.472584139579645 C-63.43064496725713 27.36532300183184, -64.0940930304955 27.258061864084038, -64.52009358866589 27.189189397522718 M-62.76719690401876 27.472584139579645 C-63.36152282977771 27.37649813296933, -63.955848755536664 27.280412126359018, -64.52009358866589 27.189189397522718 M-64.52009358866589 27.189189397522718 C-64.92607256822801 27.096527344698092, -65.33205154779012 27.003865291873467, -66.25123159561184 26.79406844416853 M-64.52009358866589 27.189189397522718 C-65.09451447211865 27.0580815793212, -65.6689353555714 26.926973761119683, -66.25123159561184 26.79406844416853 M-66.25123159561184 26.79406844416853 C-66.77212019375361 26.6394714424401, -67.29300879189537 26.48487444071167, -67.95349730745818 26.2888449162676 M-66.25123159561184 26.79406844416853 C-66.81412274662964 26.627005305222397, -67.37701389764743 26.45994216627626, -67.95349730745818 26.2888449162676 M-67.95349730745818 26.2888449162676 C-68.56406700103324 26.0641496249876, -69.17463669460831 25.8394543337076, -69.61989574926008 25.675594885666165 M-67.95349730745818 26.2888449162676 C-68.4987184291632 26.088198503511347, -69.04393955086825 25.887552090755097, -69.61989574926008 25.675594885666165 M-69.61989574926008 25.675594885666165 C-70.2313255531502 25.40493304890472, -70.8427553570403 25.13427121214328, -71.24357933237879 24.95683832828171 M-69.61989574926008 25.675594885666165 C-70.03143514098664 25.493418604831124, -70.44297453271321 25.311242323996083, -71.24357933237879 24.95683832828171 M-71.24357933237879 24.95683832828171 C-71.80886218802969 24.661930624569578, -72.3741450436806 24.367022920857448, -72.81787599269225 24.13552876898131 M-71.24357933237879 24.95683832828171 C-71.76740487588508 24.683558877760753, -72.29123041939137 24.410279427239793, -72.81787599269225 24.13552876898131 M-72.81787599269225 24.13552876898131 C-73.391025136508 23.78808238980197, -73.96417428032375 23.440636010622633, -74.3363166075377 23.215041144914476 M-72.81787599269225 24.13552876898131 C-73.24416188770074 23.87711175429318, -73.67044778270923 23.618694739605047, -74.3363166075377 23.215041144914476 M-74.3363166075377 23.215041144914476 C-74.673395575165 22.979909449010997, -75.01047454279231 22.744777753107517, -75.7926615787242 22.199157937172473 M-74.3363166075377 23.215041144914476 C-74.90704168375822 22.816928038033392, -75.47776675997873 22.418814931152312, -75.7926615787242 22.199157937172473 M-75.7926615787242 22.199157937172473 C-76.2257102004629 21.853813185243666, -76.65875882220159 21.50846843331486, -77.18092647238016 21.092053627762194 M-75.7926615787242 22.199157937172473 C-76.24404095158823 21.83919489902299, -76.69542032445226 21.4792318608735, -77.18092647238016 21.092053627762194 M-77.18092647238016 21.092053627762194 C-77.64805195227233 20.667822626387057, -78.11517743216447 20.24359162501192, -78.49540661027564 19.898277545764127 M-77.18092647238016 21.092053627762194 C-77.48362340263316 20.817152284628328, -77.78632033288615 20.542250941494462, -78.49540661027564 19.898277545764127 M-78.49540661027564 19.898277545764127 C-78.90969598678667 19.470489750726106, -79.3239853632977 19.042701955688084, -79.73070051156894 18.62273517316335 M-78.49540661027564 19.898277545764127 C-78.96216084003926 19.41631548229824, -79.42891506980288 18.93435341883236, -79.73070051156894 18.62273517316335 M-79.73070051156894 18.62273517316335 C-80.00877778653087 18.296089782947877, -80.28685506149279 17.969444392732406, -80.88173208864991 17.27066798717189 M-79.73070051156894 18.62273517316335 C-80.15457011827812 18.124833814258878, -80.57843972498728 17.626932455354407, -80.88173208864991 17.27066798717189 M-80.88173208864991 17.27066798717189 C-81.27756388634491 16.74028943927922, -81.6733956840399 16.20991089138655, -81.94377150587286 15.84763192187448 M-80.88173208864991 17.27066798717189 C-81.09927443753605 16.97918105818015, -81.3168167864222 16.687694129188408, -81.94377150587286 15.84763192187448 M-81.94377150587286 15.84763192187448 C-82.18235028400983 15.481110851283887, -82.4209290621468 15.114589780693294, -82.91245461546563 14.359474537703703 M-81.94377150587286 15.84763192187448 C-82.20969948107249 15.439095140307927, -82.47562745627212 15.030558358741374, -82.91245461546563 14.359474537703703 M-82.91245461546563 14.359474537703703 C-83.22136231238524 13.810977641526708, -83.53027000930484 13.262480745349716, -83.78380089074909 12.81231099255985 M-82.91245461546563 14.359474537703703 C-83.21986217785725 13.813641282286241, -83.52726974024887 13.26780802686878, -83.78380089074909 12.81231099255985 M-83.78380089074909 12.81231099255985 C-83.98454425597261 12.395463099453282, -84.18528762119614 11.978615206346717, -84.55422978297489 11.212498913315502 M-83.78380089074909 12.81231099255985 C-83.95046060455704 12.466238530891037, -84.11712031836498 12.120166069222224, -84.55422978297489 11.212498913315502 M-84.55422978297489 11.212498913315502 C-84.79818794379472 10.609917539480342, -85.04214610461455 10.007336165645185, -85.22057543456836 9.566612270962864 M-84.55422978297489 11.212498913315502 C-84.77633152928652 10.663903305880604, -84.99843327559817 10.115307698445706, -85.22057543456836 9.566612270962864 M-85.22057543456836 9.566612270962864 C-85.35135524265496 9.172724325938711, -85.48213505074158 8.778836380914559, -85.78009968831644 7.88141436675692 M-85.22057543456836 9.566612270962864 C-85.37100849987192 9.113531846522536, -85.52144156517548 8.660451422082208, -85.78009968831644 7.88141436675692 M-85.78009968831644 7.88141436675692 C-85.93589950703102 7.287282133929638, -86.09169932574561 6.693149901102356, -86.23050333904288 6.163830040359915 M-85.78009968831644 7.88141436675692 C-85.8966168133869 7.4370840700217835, -86.01313393845737 6.992753773286648, -86.23050333904288 6.163830040359915 M-86.23050333904288 6.163830040359915 C-86.35077952747481 5.546237233143369, -86.47105571590676 4.928644425926822, -86.5699355815356 4.420917214189674 M-86.23050333904288 6.163830040359915 C-86.3036476102214 5.788249666905382, -86.37679188139994 5.412669293450848, -86.5699355815356 4.420917214189674 M-86.5699355815356 4.420917214189674 C-86.65191426639316 3.785106722956829, -86.73389295125071 3.1492962317239837, -86.79700161590219 2.6598378909025606 M-86.5699355815356 4.420917214189674 C-86.63886500694369 3.886314202379232, -86.70779443235176 3.3517111905687904, -86.79700161590219 2.6598378909025606 M-86.79700161590219 2.6598378909025606 C-86.82876247158322 2.1651369267693843, -86.86052332726423 1.6704359626362075, -86.91076837910194 0.8878287231882646 M-86.79700161590219 2.6598378909025606 C-86.83796427775245 2.021811368119353, -86.8789269396027 1.3837848453361452, -86.91076837910194 0.8878287231882646 M-86.91076837910194 0.8878287231882646 C-86.91076837910194 0.46319328507229424, -86.91076837910194 0.038557846956323916, -86.91076837910194 -0.8878287231882511 M-86.91076837910194 0.8878287231882646 C-86.91076837910194 0.47163634959385636, -86.91076837910194 0.05544397599944817, -86.91076837910194 -0.8878287231882511 M-86.91076837910194 -0.8878287231882511 C-86.87163656388466 -1.4973383318299804, -86.83250474866739 -2.1068479404717095, -86.79700161590219 -2.6598378909025224 M-86.91076837910194 -0.8878287231882511 C-86.87851264064466 -1.390237886023711, -86.84625690218739 -1.892647048859171, -86.79700161590219 -2.6598378909025224 M-86.79700161590219 -2.6598378909025224 C-86.72021363016852 -3.255390344750025, -86.64342564443486 -3.8509427985975275, -86.56993558153562 -4.420917214189662 M-86.79700161590219 -2.6598378909025224 C-86.72793698616854 -3.195489520762993, -86.6588723564349 -3.731141150623463, -86.56993558153562 -4.420917214189662 M-86.56993558153562 -4.420917214189662 C-86.4934017847356 -4.8139020853341155, -86.41686798793556 -5.20688695647857, -86.2305033390429 -6.163830040359902 M-86.56993558153562 -4.420917214189662 C-86.45906928972374 -4.99019219104459, -86.34820299791186 -5.559467167899518, -86.2305033390429 -6.163830040359902 M-86.2305033390429 -6.163830040359902 C-86.12150334808271 -6.579494246786015, -86.01250335712251 -6.995158453212127, -85.78009968831644 -7.881414366756906 M-86.2305033390429 -6.163830040359902 C-86.0567748774389 -6.826331958847516, -85.88304641583488 -7.4888338773351295, -85.78009968831644 -7.881414366756906 M-85.78009968831644 -7.881414366756906 C-85.60462401313161 -8.409919142161574, -85.42914833794678 -8.93842391756624, -85.22057543456836 -9.566612270962828 M-85.78009968831644 -7.881414366756906 C-85.61659737751427 -8.373857276337548, -85.4530950667121 -8.866300185918188, -85.22057543456836 -9.566612270962828 M-85.22057543456836 -9.566612270962828 C-84.96630379042938 -10.19466814799394, -84.71203214629038 -10.822724025025051, -84.55422978297489 -11.212498913315487 M-85.22057543456836 -9.566612270962828 C-84.99268125127772 -10.129515309725038, -84.76478706798706 -10.692418348487248, -84.55422978297489 -11.212498913315487 M-84.55422978297489 -11.212498913315487 C-84.32735748841324 -11.683604087262216, -84.10048519385158 -12.154709261208943, -83.7838008907491 -12.812310992559837 M-84.55422978297489 -11.212498913315487 C-84.36045146029562 -11.61488374655089, -84.16667313761634 -12.017268579786291, -83.7838008907491 -12.812310992559837 M-83.7838008907491 -12.812310992559837 C-83.55337392806594 -13.221457398063938, -83.32294696538278 -13.63060380356804, -82.91245461546565 -14.359474537703692 M-83.7838008907491 -12.812310992559837 C-83.47789816500853 -13.355472258122141, -83.17199543926795 -13.898633523684444, -82.91245461546565 -14.359474537703692 M-82.91245461546565 -14.359474537703692 C-82.70884992226968 -14.67226602196812, -82.50524522907371 -14.985057506232547, -81.94377150587286 -15.847631921874472 M-82.91245461546565 -14.359474537703692 C-82.57547052802894 -14.877172588904148, -82.23848644059224 -15.394870640104605, -81.94377150587286 -15.847631921874472 M-81.94377150587286 -15.847631921874472 C-81.68373871474456 -16.19605217251178, -81.42370592361627 -16.54447242314909, -80.88173208864993 -17.270667987171883 M-81.94377150587286 -15.847631921874472 C-81.68869226204819 -16.189414870402352, -81.43361301822354 -16.53119781893023, -80.88173208864993 -17.270667987171883 M-80.88173208864993 -17.270667987171883 C-80.47152380021006 -17.75252198428619, -80.06131551177022 -18.234375981400493, -79.73070051156895 -18.62273517316334 M-80.88173208864993 -17.270667987171883 C-80.42760213957251 -17.804114866084355, -79.97347219049509 -18.33756174499683, -79.73070051156895 -18.62273517316334 M-79.73070051156895 -18.62273517316334 C-79.31786366716558 -19.049023109545097, -78.90502682276221 -19.475311045926855, -78.49540661027567 -19.8982775457641 M-79.73070051156895 -18.62273517316334 C-79.2986294673573 -19.068884000004324, -78.86655842314563 -19.51503282684531, -78.49540661027567 -19.8982775457641 M-78.49540661027567 -19.8982775457641 C-77.98769166956936 -20.35937082151237, -77.47997672886304 -20.820464097260643, -77.1809264723802 -21.09205362776217 M-78.49540661027567 -19.8982775457641 C-78.08407587465908 -20.27183723663621, -77.67274513904248 -20.64539692750832, -77.1809264723802 -21.09205362776217 M-77.1809264723802 -21.09205362776217 C-76.7141793016423 -21.464272075761784, -76.24743213090441 -21.836490523761398, -75.79266157872422 -22.199157937172462 M-77.1809264723802 -21.09205362776217 C-76.74416447685931 -21.440359696465247, -76.30740248133843 -21.788665765168325, -75.79266157872422 -22.199157937172462 M-75.79266157872422 -22.199157937172462 C-75.27207437905497 -22.56229703180507, -74.75148717938573 -22.925436126437678, -74.33631660753773 -23.215041144914455 M-75.79266157872422 -22.199157937172462 C-75.3395988803616 -22.515194862782117, -74.88653618199898 -22.831231788391772, -74.33631660753773 -23.215041144914455 M-74.33631660753773 -23.215041144914455 C-73.77161018979122 -23.557369493935653, -73.20690377204473 -23.899697842956847, -72.81787599269227 -24.1355287689813 M-74.33631660753773 -23.215041144914455 C-73.85350128148518 -23.507726632905303, -73.37068595543263 -23.80041212089615, -72.81787599269227 -24.1355287689813 M-72.81787599269227 -24.1355287689813 C-72.47775298775292 -24.312970722798973, -72.13762998281358 -24.49041267661665, -71.2435793323788 -24.9568383282817 M-72.81787599269227 -24.1355287689813 C-72.28807003677112 -24.41192819682845, -71.75826408084998 -24.6883276246756, -71.2435793323788 -24.9568383282817 M-71.2435793323788 -24.9568383282817 C-70.63342943992247 -25.22693358621864, -70.02327954746612 -25.497028844155576, -69.6198957492601 -25.67559488566616 M-71.2435793323788 -24.9568383282817 C-70.88201367900439 -25.11689271756652, -70.52044802562999 -25.27694710685134, -69.6198957492601 -25.67559488566616 M-69.6198957492601 -25.67559488566616 C-69.02771795487637 -25.893521788030903, -68.43554016049262 -26.11144869039564, -67.95349730745822 -26.28884491626759 M-69.6198957492601 -25.67559488566616 C-69.26118790177324 -25.80760268940032, -68.90248005428637 -25.939610493134477, -67.95349730745822 -26.28884491626759 M-67.95349730745822 -26.28884491626759 C-67.41699938834488 -26.448074682525387, -66.88050146923152 -26.607304448783182, -66.25123159561188 -26.79406844416852 M-67.95349730745822 -26.28884491626759 C-67.53025117474037 -26.41446214679396, -67.10700504202252 -26.540079377320332, -66.25123159561188 -26.79406844416852 M-66.25123159561188 -26.79406844416852 C-65.79665931796598 -26.897821600179867, -65.34208704032007 -27.001574756191214, -64.5200935886659 -27.189189397522714 M-66.25123159561188 -26.79406844416852 C-65.5677896467378 -26.95005960912352, -64.88434769786369 -27.10605077407852, -64.5200935886659 -27.189189397522714 M-64.5200935886659 -27.189189397522714 C-64.10835830045053 -27.255755565866526, -63.696623012235165 -27.322321734210337, -62.767196904018775 -27.472584139579645 M-64.5200935886659 -27.189189397522714 C-64.16340497493192 -27.246856046429713, -63.80671636119794 -27.304522695336708, -62.767196904018775 -27.472584139579645 M-62.767196904018775 -27.472584139579645 C-62.13514598883085 -27.533557331215388, -61.503095073642925 -27.594530522851127, -60.99974457014286 -27.64308814055623 M-62.767196904018775 -27.472584139579645 C-62.30821670343904 -27.51686140752512, -61.8492365028593 -27.5611386754706, -60.99974457014286 -27.64308814055623 M-60.99974457014286 -27.64308814055623 C-60.48396833310127 -27.65962808058061, -59.96819209605968 -27.67616802060499, -59.22499942779542 -27.700000762939453 M-60.99974457014286 -27.64308814055623 C-60.36327945590304 -27.66349833796571, -59.72681434166323 -27.68390853537519, -59.22499942779542 -27.700000762939453 M-59.22499942779542 -27.700000762939453 C-59.22499942779542 -27.700000762939453, -59.22499942779541 -27.700000762939453, -59.22499942779541 -27.700000762939453 M-59.22499942779542 -27.700000762939453 C-59.22499942779542 -27.700000762939453, -59.22499942779541 -27.700000762939453, -59.22499942779541 -27.700000762939453" stroke="#2f4a73" stroke-width="1.3" fill="none" stroke-dasharray="0 0" style="fill:#4a6fa5 !important;stroke:#2f4a73 !important"/></g><g class="label" style="color:#ffffff !important" transform="translate(0, -15.700000762939453)"><rect/><g><rect class="background" style="stroke: none"/><text y="-10.1" style="fill:#ffffff !important"><tspan class="text-outer-tspan row" x="0" y="-0.1em" dy="1.1em"><tspan font-style="normal" class="text-inner-tspan" font-weight="normal">Browser</tspan></tspan><tspan class="text-outer-tspan row" x="0" y="1em" dy="1.1em"><tspan font-style="normal" class="text-inner-tspan" font-weight="normal">phone</tspan><tspan font-style="normal" class="text-inner-tspan" font-weight="normal"> or</tspan><tspan font-style="normal" class="text-inner-tspan" font-weight="normal"> desktop</tspan></tspan></text></g></g></g><g class="node default node" id="my-svg-flowchart-nginx-1" data-look="neo" transform="translate(219.5546875, 324.1999988555908)"><rect class="basic label-container" style="fill:#4a6fa5 !important;stroke:#2f4a73 !important" x="-76" y="-35.39999961853027" width="152" height="70.79999923706055"/><g class="label" style="color:#ffffff !important" transform="translate(0, -23.399999618530273)"><rect/><g><rect class="background" style="stroke: none"/><text y="-10.1" style="fill:#ffffff !important"><tspan class="text-outer-tspan row" x="0" y="-0.1em" dy="1.1em"><tspan font-style="normal" class="text-inner-tspan" font-weight="normal">nginx</tspan><tspan font-style="normal" class="text-inner-tspan" font-weight="normal"> :8080</tspan></tspan><tspan class="text-outer-tspan row" x="0" y="1em" dy="1.1em"><tspan font-style="normal" class="text-inner-tspan" font-weight="normal">Angular</tspan><tspan font-style="normal" class="text-inner-tspan" font-weight="normal"> bundle</tspan></tspan><tspan class="text-outer-tspan row" x="0" y="2.1em" dy="1.1em"><tspan font-style="normal" class="text-inner-tspan" font-weight="normal">sets</tspan><tspan font-style="normal" class="text-inner-tspan" font-weight="normal"> X-Real-IP</tspan></tspan></text></g></g></g><g class="node default node" id="my-svg-flowchart-nest-2" data-look="neo" transform="translate(219.5546875, 721.8062534332275)"><rect class="basic label-container" style="fill:#4a6fa5 !important;stroke:#2f4a73 !important" x="-96.9296875" y="-27.700000762939453" width="193.859375" height="55.400001525878906"/><g class="label" style="color:#ffffff !important" transform="translate(0, -15.700000762939453)"><rect/><g><rect class="background" style="stroke: none"/><text y="-10.1" style="fill:#ffffff !important"><tspan class="text-outer-tspan row" x="0" y="-0.1em" dy="1.1em"><tspan font-style="normal" class="text-inner-tspan" font-weight="normal">bun</tspan><tspan font-style="normal" class="text-inner-tspan" font-weight="normal"> dist/main.js</tspan><tspan font-style="normal" class="text-inner-tspan" font-weight="normal"> :3000</tspan></tspan><tspan class="text-outer-tspan row" x="0" y="1em" dy="1.1em"><tspan font-style="normal" class="text-inner-tspan" font-weight="normal">migrate</tspan><tspan font-style="normal" class="text-inner-tspan" font-weight="normal"> →</tspan><tspan font-style="normal" class="text-inner-tspan" font-weight="normal"> seed?</tspan><tspan font-style="normal" class="text-inner-tspan" font-weight="normal"> →</tspan><tspan font-style="normal" class="text-inner-tspan" font-weight="normal"> listen</tspan></tspan></text></g></g></g><g class="node default store" id="my-svg-flowchart-vol-3" data-look="neo" transform="translate(219.5546875, 942.505597114563)"><path d="M0,13.382899628252789 a72,13.382899628252789 0,0,0 144,0 a72,13.382899628252789 0,0,0 -144,0 l0,68.7829011541317 a72,13.382899628252789 0,0,0 144,0 l0,-68.7829011541317" class="basic label-container outer-path" style="fill:#e8eef6 !important;stroke:#4a6fa5 !important" transform="translate(-72, -47.77435020531863)"/><g class="label" style="color:#ffffff !important" transform="translate(0, -6.7000017166137695)"><rect/><g><rect class="background" style="stroke: none"/><text y="-10.1" style="fill:#ffffff !important"><tspan class="text-outer-tspan row" x="0" y="-0.1em" dy="1.1em"><tspan font-style="normal" class="text-inner-tspan" font-weight="normal">volume</tspan><tspan font-style="normal" class="text-inner-tspan" font-weight="normal"> db-data</tspan></tspan><tspan class="text-outer-tspan row" x="0" y="1em" dy="1.1em"><tspan font-style="normal" class="text-inner-tspan" font-weight="normal">/data/local.db</tspan></tspan></text></g></g></g></g></g></g><defs><filter id="my-svg-drop-shadow" height="130%" width="130%"><feDropShadow dx="4" dy="4" stdDeviation="0" flood-opacity="0.06" flood-color="#000000"/></filter></defs><defs><filter id="my-svg-drop-shadow-small" height="150%" width="150%"><feDropShadow dx="2" dy="2" stdDeviation="0" flood-opacity="0.06" flood-color="#000000"/></filter></defs><linearGradient id="my-svg-gradient" gradientUnits="objectBoundingBox" x1="0%" y1="0%" x2="100%" y2="0%"><stop offset="0%" stop-color="hsl(0, 0%, 83.3333333333%)" stop-opacity="1"/><stop offset="100%" stop-color="hsl(0, 0%, 88.9215686275%)" stop-opacity="1"/></linearGradient></svg>